<?xml version="1.0" encoding="UTF-8"?>
<svg id="Capa_1" xmlns="http://www.w3.org/2000/svg" version="1.1" viewBox="0 0 2400 2400">
  <!-- Generator: Adobe Illustrator 29.4.0, SVG Export Plug-In . SVG Version: 2.1.0 Build 152)  -->
  <defs>
    <style>
      .st0 {
        fill: currentColor;
      }
    </style>
  </defs>
  <path class="st0" d="M2283.15,986.93c-.05-.7-.17-1.34-.35-2.01-.02-.07-.02-.14-.05-.24h-.02c-1.62-6.18-7.23-10.75-13.93-10.75-6.16,0-11.62,3.89-16.91,6.58-5.52,2.81-11.33,5.17-17.03,7.54-12.22,5.1-24.64,9.76-37.21,13.96-11.33,3.8-22.76,7.21-34.31,10.23v-205c0-.7-.02-1.38-.02-2.04v-.07c0-.45.02-.91.02-1.34,0-1.71-.17-3.39-.51-4.99,0-.03,0-.05-.02-.1-.42-2.01-1.07-3.94-1.95-5.74-2.32-4.82-6.16-8.76-10.89-11.22-1.19-.61-2.41-1.13-3.72-1.59-1.92-.61-3.94-1.01-6.06-1.13h-.03c-.56-.05-1.12-.07-1.68-.07-10.63,0-20.04,6.7-29.13,11.34-9.51,4.82-19.49,8.87-29.36,12.98-21.06,8.8-42.44,16.81-64.07,24.07-10.3,3.44-20.68,6.72-31.12,9.77v-174.72c0-.72-.02-1.38-.03-2.06v-.07c.02-.42.03-.87.03-1.34,0-1.73-.17-3.42-.51-5.04,0-.02,0-.05-.04-.07-.42-2.04-1.06-4-1.95-5.81-2.34-4.83-6.21-8.83-10.98-11.33-1.19-.61-2.44-1.13-3.75-1.55-1.94-.68-4-1.05-6.11-1.22h-.02c-.58-.05-1.12-.05-1.73-.05-10.72,0-20.21,6.79-29.37,11.45-9.58,4.83-19.67,8.97-29.6,13.11-21.26,8.85-42.83,16.95-64.63,24.26-44.21,14.78-89.5,26.35-135.38,34.54-46.97,8.39-94.56,13.25-142.27,14.61-8.95.24-18.76,1.45-27.68.42,36.46,4.17,73.49,6.34,111.05,6.34,49.27,0,98.52-3.72,147.19-11.2,47.47-7.28,94.38-18.15,140.2-32.44,10.28-3.18,20.49-6.58,30.72-9.81.17-.07.35-.12.52-.17-.99,53.28-1.99,106.57-2.98,159.87l-.54,28.66c-6.21,332.94-12.41,665.9-18.64,998.84-.09,4.31-.16,8.64-.23,12.93v.24c-63-9.01-148.45-18.12-218.57-7.19-247.28,38.59-416.54,190.58-506.38,295.02-3.67,4.29-7.23,8.48-10.63,12.58h-.3c-3.46-4.14-7.03-8.39-10.75-12.74-89.84-104.44-259.08-256.27-506.24-294.86-70.14-10.92-155.59-1.82-218.56,7.19v-.24c-.07-4.29-.17-8.62-.24-12.93-6.21-332.98-12.43-665.9-18.66-998.88-.17-9.53-.35-19.09-.54-28.62-1-53.3-1.99-106.58-2.98-159.87.21.05.35.1.52.17,10.26,3.23,20.47,6.63,30.72,9.81,45.85,14.29,92.73,25.17,140.2,32.44,48.69,7.49,97.96,11.2,147.21,11.2,37.56,0,74.61-2.16,111.07-6.34-8.94,1.03-18.73-.17-27.72-.42-47.68-1.36-95.27-6.21-142.24-14.61-45.92-8.19-91.17-19.76-135.4-34.54-21.82-7.31-43.39-15.41-64.64-24.26-9.91-4.14-19.98-8.27-29.56-13.11-9.16-4.66-18.67-11.45-29.39-11.45-.59,0-1.13,0-1.73.05h-.04c-2.11.17-4.17.54-6.11,1.22-1.29.42-2.55.94-3.72,1.55-4.77,2.5-8.64,6.49-11,11.33-.91,1.82-1.55,3.77-1.97,5.81-.02.02-.02.05-.02.07-.33,1.62-.52,3.32-.52,5.04,0,.47.02.93.05,1.34v.07c-.03.68-.05,1.34-.05,2.06v174.72c-10.44-3.07-20.8-6.35-31.12-9.81-21.62-7.24-43.04-15.27-64.09-24.07-9.84-4.12-19.81-8.17-29.32-12.98-9.09-4.61-18.53-11.34-29.13-11.34-.58,0-1.15.03-1.69.07h-.05c-2.11.12-4.15.52-6.06,1.17-1.29.42-2.51.94-3.74,1.57-4.71,2.46-8.53,6.41-10.87,11.22-.87,1.82-1.54,3.72-1.94,5.76-.02.02-.02.05-.02.1-.35,1.59-.51,3.28-.51,4.96,0,.47,0,.91.03,1.34v.07c-.03.68-.03,1.34-.03,2.04v206.27c-13.16-3.32-26.2-7.17-39.06-11.47-12.53-4.21-24.96-8.87-37.17-13.96-5.72-2.37-11.52-4.73-17.03-7.54-5.29-2.69-10.75-6.58-16.91-6.58-6.7,0-12.3,4.57-13.95,10.75h-.03c-.02.1-.02.17-.03.24-.16.66-.28,1.31-.35,2.01-.1.8-.16,1.59-.16,2.39v.17c-.02.1-.02.19-.02.3v1250.23c26.55,5.81,54.64,11.31,84.24,16.18,29.63,4.85,60.7,9.16,93.18,12.6,55.1,5.85,106.67,8.45,154,8.97,56.96-2.25,103.09-7.03,134.49-10.91,63.11-7.78,96.06-15.71,191.59-30.28,41.95-6.4,76.25-11.08,98.26-13.98,39.23-5.1,100.07-7.92,170.69,9.88,46.79,11.82,84.49,29.3,112.1,44.87,10.52,3.35,26.27,7.1,45.59,6.98,18.52-.1,33.67-3.7,43.98-6.98,27.63-15.57,65.31-33.05,112.08-44.87,70.65-17.8,131.47-14.97,170.7-9.88,22.02,2.9,56.32,7.57,98.26,13.98,95.52,14.57,128.5,22.5,191.61,30.28,31.36,3.87,77.52,8.66,134.49,10.91,47.31-.52,98.89-3.12,153.98-8.97,32.48-3.44,63.56-7.75,93.16-12.6,29.6-4.87,57.71-10.37,84.26-16.18V989.32c-.03-.8-.07-1.59-.17-2.39ZM1727.2,1897.2c87.18-11.75,164.51-4.12,225.75,8.64,11.17,2.34,21.82,4.85,31.87,7.43V869.11c41.75-7.1,83.02-17.03,123.44-29.65,10.16-3.18,20.3-6.53,30.42-9.72.19-.05.35-.14.54-.17-1.15,63.07-2.36,126.13-3.52,189.2-.09,4.4-.17,8.81-.25,13.21-6.06,324.9-12.15,649.77-18.2,974.63-.07,4.29-.14,8.57-.25,12.86-.07,4.87-.17,9.76-.28,14.66-10.54,6.65-25.29,15.22-43.67,23.63-29.77,13.63-54.02,20.02-70.68,24.31-30.04,7.75-53.23,10.7-77.05,13.73-24.05,3.07-46.35,4.76-66.55,5.64,0,0-75.06-1.38-164.8-13.63,0,0-134.19-12.6-163.88-10.37-43.82,2.27-104.07,10.07-171.79,33.72-25.78,9.01-49.16,19.11-70.18,29.48,81.63-90.21,228.68-215.1,439.07-243.44ZM265.51,829.53c.17.05.35.12.52.17,10.16,3.21,20.26,6.56,30.44,9.74,40.42,12.62,81.69,22.55,123.44,29.65v1044.18c10.05-2.58,20.72-5.1,31.89-7.43,61.22-12.76,138.57-20.38,225.76-8.64,210.37,28.34,357.46,153.27,439.07,243.48-21.01-10.44-44.43-20.51-70.21-29.53-67.7-23.67-127.98-31.47-171.77-33.72-29.7-2.23-163.9,10.35-163.9,10.35-89.76,12.27-164.82,13.63-164.82,13.63-20.17-.86-42.46-2.55-66.53-5.64-23.84-3.02-47-5.99-77.05-13.72-16.69-4.31-40.89-10.68-70.67-24.31-18.38-8.43-33.12-17-43.7-23.65-.1-4.89-.17-9.77-.28-14.64-.07-4.28-.16-8.57-.24-12.86-6.06-324.72-12.13-649.48-18.19-974.22-.07-4.19-.14-8.41-.23-12.62-1.19-63.42-2.36-126.81-3.54-190.23ZM1059.84,2154.62c-35.87-5.43-91.24-11.45-158.61-8.48-133.81,5.86-181.07,41.24-356.55,63.27-91.33,11.45-155.54,11.52-169.92,11.47-80.81-.21-152.26-8.53-211.91-19.34l-22.3-1195.08c2.74.85,5.46,1.76,8.2,2.6,26.37,8.24,53.37,14.5,80.68,18.67,3.96.63,7.96,1.19,11.95,1.71v1022.63l43.07,18.73c14.52,5.83,29.22,11.26,44.07,16.21,29.13,9.79,58.87,17.98,88.92,24.5,64.03,13.91,130.02,18.88,195.42,14.68,66.18-4.24,131.42-17.85,197.84-19.67,61.66-1.73,123.98,4.33,183.25,21.99,25.72,7.66,48.47,16.7,68.06,25.86,1.19.45,2.39.87,3.58,1.34-1.95-.37-3.87-.75-5.76-1.1ZM1202.32,2206.4l-11-18.27-1.61-2.64h.02l1.59,2.64,11.01,18.27h-.02ZM2237.13,2201.54c-59.62,10.8-131.07,19.13-211.91,19.34-14.36.05-78.59-.02-169.92-11.47-175.48-22.03-222.73-57.4-356.52-63.27-65.52-2.88-119.67,2.72-155.61,8.05,19.49-9.08,42.08-18.03,67.59-25.66,59.25-17.66,121.61-23.72,183.23-22.01,66.44,1.85,131.68,15.45,197.86,19.7,65.38,4.19,131.38-.77,195.42-14.68,30.02-6.53,59.77-14.73,88.92-24.52,14.83-4.97,29.53-10.37,44.08-16.21l43.06-18.74v-1023.27c2.41-.35,4.82-.7,7.23-1.06,27.31-4.17,54.31-10.44,80.7-18.67,2.74-.84,5.46-1.75,8.2-2.6l-22.34,1195.08Z"/>
  <g>
    <path class="st0" d="M1491.89,577.41c-15.24-102.01-101.13-174.04-193.1-210.24-1.52-.65-3.09-1.25-4.64-1.84-31.07-11.84-62.76-17.57-94.2-17.89-28.15-.27-56.08,3.86-83.11,11.92-33.35,9.91-65.38,25.78-94.88,46.76-51.08,36.38-91,87.05-115.45,144.71-.36.79-1.16,1.7-.78,2.49,20.75,45.1,95.28,30.82,95.28,30.82,23.83-18.54,64.82-45.83,121.8-62.82.02,0,.04-.02.05-.02,4.08-1.21,8.27-2.38,12.53-3.48,1.43-.36,2.85-.72,4.26-1.07l.47-.13c23.56-5.78,45.55-8.68,65.2-9.89,13.23-.76,34.68-.31,59.24,7.93,4.8,1.59,9.35,3.36,13.63,5.27l.11.05c5.24,2.31,10.09,4.8,14.52,7.37.02,0,.04,0,.05.02,12.93,7.4,22.51,15.29,28.74,21.09,4.41,3.9,39.22,35.68,35.98,84.25-3.68,55.43-59.76,84.82-71.95,91.27l-5.22,142.15c1.72-.56,3.45-1.12,5.22-1.71,28.73-9.28,45.63-14.73,67.13-27.19,13.99-8.11,32.41-20.6,51.35-39.51,4.97-4.04,107.25-89.99,87.75-220.31ZM1032.45,492.08c-15.91,0-28.8-12.89-28.8-28.76s12.89-28.8,28.8-28.8,28.76,12.87,28.76,28.8-12.89,28.76-28.76,28.76Z"/>
    <path class="st0" d="M1344.88,1871.81c-1.88-1.17-3.76-2.4-5.63-3.57-24.74-15.78-49.51-31.58-74.24-47.36-6.39-4.06-12.82-8.16-19.21-12.26-25.82-16.43-51.6-32.88-77.4-49.35-.34-.2-.7-.45-1.05-.65-31.47-20.04-67.18-37.63-75.22-77.89-4.44-22.39.34-40.48,3.05-48.71,4.46-8.38,13.11-22.1,28.56-34.23,7.29-5.76,19.5-15.35,37.28-18.89.23-.04.45-.11.69-.14l-1.32-36.54c-32.34,8.81-51.8,29.25-60.79,38.91-17.66,18.87-26.41,38.35-30.71,50.45-2.17,9.66-6.3,34.29,4.82,61.88,10.78,32.41,35.97,49.17,63.65,66.23,9.53,5.83,19.12,11.59,28.67,17.4,1.01.61,2.04,1.25,3.05,1.88,25.4,15.35,50.77,30.73,76.12,46.1,10.53,6.39,21.05,12.75,31.58,19.14,20.62,12.51,41.26,24.99,61.89,37.5,2.6,1.63,5.99.92,7.8-1.53,1.95-2.74,1.23-6.54-1.59-8.34Z"/>
    <path class="st0" d="M1333.93,1487.62c-.87.87-1.88,1.84-2.15,2.11-15.18,14.82-36.56,35.69-63.21,42.79.43-11.66.9-27.75,1.41-48.21,29.99-11.27,50.57-50.84,57.15-80.96,10.98-50.34-12.06-99.77-55.03-126.15-2.22-1.35-4.42-2.71-6.61-4.1-39.88-24.7-78.87-51.1-117.85-77.4-17.97-12.13-35.97-24.25-53.99-36.13-10.29-6.81-20.6-13.63-30.93-20.4-12.86-9.3-49.92-38.73-65.38-91.96-21.38-73.45,15.42-133.7,21.5-143.29,12.08-14.93,29.14-33.2,52.22-50.9,29.43-22.59,47.18-32.37,62.56-37.38l4.57,123.68c-9.98,2.96-36.42,12.51-48.06,36.8-14.5,30.26-.63,66.44,19.95,90.15,14.68,16.92,35.21,29.18,52.81,42.83,20.24,15.69,40.48,31.4,60.7,47.11,14.97,11.61,29.94,23.24,44.9,34.87,12.93,10.04,25.86,20.06,38.78,30.08,20.28,15.74,38.26,30.48,52.07,52.32,15.17,23.99,24.48,51.49,26.38,79.84,5.04,76.48-44.2,126.79-51.8,134.3Z"/>
    <path class="st0" d="M1196.91,1826.25l4.23,115.59c.14,3.68,3.16,6.57,6.84,6.57s6.68-2.89,6.83-6.57l3.77-102.45-13.58-8.23c-2.71-1.64-5.38-3.27-8.09-4.91Z"/>
    <path class="st0" d="M1245.27,1425.33l-10.48-26.94,4.08-111.2c-21.27-13.42-42.45-27.35-63.34-41.27l9.66,262.51,2.56,70.29.85,22.55,5.27,143.38c9.17,5.85,18.34,11.72,27.52,17.55l6.5-176.29c6.49-15.4,13.16-31.76,13.77-35.39,1.2-7.22,3.61-125.18,3.61-125.18Z"/>
    <path class="st0" d="M1280.98,1022.9l-13.91-34.2-17.93,19.9,3.91-106.06,7.13-194.53,6.07-164.88c-3.25-1.35-6.52-2.62-9.86-3.72-13.58-4.55-27.7-6.88-42.02-6.88-2.49,0-5.04.11-7.53.23-19.21,1.15-38.46,4.01-57.22,8.38l3.82,103.87-36.37-18.72-26.28,28.29,67.78,129.98,6.39,174.03,4.51,122.51.49.38v.14c24.81,19.21,49.58,38.46,74.35,57.71h0l36.65-116.42Z"/>
    <path class="st0" d="M1141.32,315.29l.42,11.31c18.45-3.49,37.03-5.22,55.56-5.22h2.91c25.02.25,49.76,3.61,73.83,10.08l1.74-47.27,30.28-110.59c2.42-8.85-4.76-17.4-13.89-16.54l-43.68,14.47-43.55-40.03-69.2-15.51c-8.82-1.98-16.96,5.35-15.91,14.33l21.52,184.97Z"/>
  </g>
</svg>