<?xml version="1.0" encoding="UTF-8"?>
<svg id="Capa_1" xmlns="http://www.w3.org/2000/svg" version="1.1" viewBox="0 0 2400 2400">
  <!-- Generator: Adobe Illustrator 29.4.0, SVG Export Plug-In . SVG Version: 2.1.0 Build 152)  -->
  <defs>
    <style>
      .st0 {
        fill: #fff;
      }

      .st1 {
        fill: #01a4ef;
      }

      .st2 {
        fill: #1d71b8;
      }

      .st3 {
        fill: #ffb901;
      }
    </style>
  </defs>
  <g>
    <g>
      <path class="st3" d="M312.27,1890.25v39.16c0,5.42-.72,8.85-2.18,10.3-1.45,1.45-4.69,2.18-9.72,2.18H105.14c-5.22,0-8.61-.77-10.15-2.32-1.55-1.55-2.32-4.93-2.32-10.15v-382.07c0-5.22.77-8.6,2.32-10.15,1.55-1.55,4.93-2.32,10.15-2.32h194.66c5.99,0,10.01.43,12.04,1.3,2.03.87,3.05,2.66,3.05,5.37,0,.77-.68,3.48-2.03,8.12l-11.02,40.03c-1.55,6.19-6.19,9.28-13.92,9.28h-115.17v98.05h100.96c5.41,0,8.85.73,10.3,2.18,1.45,1.45,2.18,4.89,2.18,10.3v39.16c0,5.22-.77,8.61-2.32,10.15-1.55,1.55-4.93,2.32-10.15,2.32h-100.96v116.62h127.06c5.41,0,8.85.73,10.3,2.18,1.45,1.45,2.18,4.89,2.18,10.3Z"/>
      <path class="st3" d="M608.18,1931.15l-44.97,18.57c-.39,0-1.55.39-3.48,1.16-1.94.77-3.39,1.16-4.35,1.16-2.52,0-5.61-4.01-9.28-12.04-3.68-8.02-6.29-15.91-7.83-23.64-4.64,4.45-8.32,7.79-11.02,10.01-2.71,2.22-7.74,5.8-15.09,10.73-7.35,4.93-15.47,8.65-24.37,11.17-8.9,2.51-18.28,3.77-28.14,3.77-33.27,0-58.51-12.71-75.72-38.15-17.22-25.43-25.82-61.07-25.82-106.9,0-55.7,9.72-97.76,29.16-126.19,19.44-28.43,47.72-42.64,84.85-42.64,9.86,0,18.95,1.26,27.27,3.77,8.31,2.52,13.68,4.55,16.1,6.09,2.42,1.55,6.43,4.26,12.04,8.12v-121.84c0-1.16.1-2.18.29-3.04.19-.87.34-1.6.44-2.18.09-.58.43-1.16,1.01-1.74.58-.58.97-.96,1.16-1.16.19-.19.77-.48,1.74-.87.97-.39,1.55-.58,1.74-.58s1.01-.19,2.47-.58c1.45-.39,2.27-.58,2.47-.58l49.9-10.15c.58,0,1.98-.29,4.21-.87,2.22-.58,3.53-.87,3.92-.87,2.32,0,3.92.82,4.79,2.46.87,1.65,1.31,4.98,1.31,10.01v324.33c0,16.83.87,30.8,2.61,41.92,1.74,11.12,3.53,19.2,5.37,24.22,1.84,5.03,2.76,8.8,2.76,11.31,0,1.94-1.84,3.68-5.51,5.22ZM527.53,1871.68v-162.17c-.19,0-1.41-.72-3.63-2.18-2.23-1.45-4.21-2.56-5.95-3.34-1.74-.77-4.16-1.74-7.25-2.9-3.1-1.16-6.67-2.03-10.73-2.61-4.06-.58-8.41-.87-13.05-.87-8.9,0-16.49,1.4-22.77,4.21-6.29,2.8-11.41,6.67-15.37,11.6-3.97,4.93-7.06,11.65-9.28,20.16-2.23,8.51-3.77,17.7-4.64,27.56-.87,9.86-1.31,21.76-1.31,35.68,0,34.43,3.63,58.99,10.88,73.69,7.25,14.7,20.26,22.05,39.02,22.05,5.99,0,11.31-.53,15.96-1.6,4.64-1.06,8.85-2.9,12.62-5.51,3.77-2.61,6.33-4.5,7.69-5.66,1.35-1.16,3.48-3.38,6.38-6.67.58-.58,1.06-1.06,1.45-1.45Z"/>
      <path class="st3" d="M922.36,1935.22l-45.26,15.09c-3.48,1.16-6.48,1.74-8.99,1.74-3.68,0-6.82-2.61-9.43-7.83-2.61-5.22-5.76-14.31-9.43-27.27-26.3,23.4-56.67,35.1-91.09,35.1-9.28,0-17.99-1.21-26.11-3.62-8.12-2.42-16.25-6.57-24.37-12.48-8.12-5.9-14.6-14.89-19.44-26.98-4.84-12.09-7.25-26.64-7.25-43.66v-204.52c0-2.7.53-4.79,1.6-6.24,1.06-1.45,2.18-2.37,3.34-2.76,1.16-.39,3.29-.97,6.38-1.74l49.9-9.86c.58,0,2.18-.34,4.79-1.01,2.61-.68,4.21-1.01,4.79-1.01,1.74,0,2.95.82,3.63,2.46.68,1.65,1.02,4.98,1.02,10.01v189.15c0,6.77.34,12.67,1.02,17.7.67,5.03,2.08,10.2,4.21,15.52,2.13,5.32,5.56,9.43,10.3,12.33,4.74,2.9,10.68,4.35,17.84,4.35,16.25,0,33.65-6.19,52.22-18.57v-210.32c0-2.7.53-4.79,1.6-6.24,1.06-1.45,2.18-2.37,3.34-2.76,1.16-.39,3.29-.97,6.38-1.74l49.9-9.86c.58,0,2.22-.34,4.93-1.01,2.71-.68,4.45-1.01,5.22-1.01,2.71,0,4.06,4.16,4.06,12.47v185.37c0,19.15.58,35.06,1.74,47.72,1.16,12.67,2.47,21.08,3.92,25.24,1.45,4.16,2.76,7.88,3.92,11.17,1.16,3.29,1.74,6.19,1.74,8.7,0,3.1-2.13,5.22-6.38,6.38Z"/>
    </g>
    <g>
      <path class="st1" d="M1219.71,1569.98l-19.73,39.16c-2.13,4.06-4.26,6.09-6.38,6.09-.58,0-2.52-.92-5.8-2.76-3.29-1.84-7.59-4.06-12.91-6.67-5.32-2.61-11.22-5.17-17.7-7.69-6.48-2.51-13.92-4.69-22.34-6.53-8.41-1.84-16.59-2.76-24.51-2.76-15.67,0-28.86,3.63-39.6,10.88-10.73,7.25-16.1,19.1-16.1,35.54,0,8.51,2.42,16.15,7.25,22.92,4.83,6.77,11.75,12.81,20.74,18.13,8.99,5.32,18.28,10.25,27.85,14.79,9.57,4.55,20.64,10.06,33.22,16.54,12.57,6.48,23.4,13.1,32.49,19.87,34.23,25.72,51.35,58.8,51.35,99.21,0,37.52-11.99,67.79-35.97,90.8-23.98,23.02-54.83,34.52-92.54,34.52-18.76,0-38.2-2.32-58.31-6.96-20.12-4.64-36.12-9.76-48.01-15.37-11.9-5.61-17.84-10.05-17.84-13.34,0-.58.97-3.77,2.9-9.57l13.92-39.16c1.35-3.87,3.48-5.8,6.38-5.8l14.22,6.38c9.67,4.45,22.38,8.85,38.15,13.2,15.76,4.35,31.19,6.53,46.27,6.53,17.02,0,30.17-4.59,39.45-13.78,9.28-9.18,13.92-22.87,13.92-41.05,0-10.05-2.13-18.81-6.38-26.25-4.26-7.44-10.64-13.97-19.15-19.58-8.51-5.61-17.26-10.49-26.25-14.65-8.99-4.16-20.26-9.38-33.8-15.67-13.54-6.28-25.34-12.52-35.39-18.71-17.22-10.44-30.17-22.63-38.87-36.55-8.7-13.92-13.05-32.49-13.05-55.7,0-20.69,3.53-38.97,10.59-54.83,7.06-15.85,16.73-28.52,29.01-38,12.28-9.47,26.11-16.58,41.49-21.32,15.37-4.74,31.96-7.11,49.75-7.11s35.63,2.32,54.1,6.96c18.47,4.64,33.17,9.82,44.1,15.52,10.92,5.71,16.39,10.3,16.39,13.78,0,2.13-.97,5.13-2.9,8.99Z"/>
      <path class="st1" d="M1503.14,1931.15l-45.26,18.57c-.39.19-1.5.63-3.34,1.31-1.84.68-3.24,1.01-4.21,1.01-2.52,0-5.66-4.01-9.43-12.04-3.77-8.02-6.43-15.91-7.98-23.64-10.25,10.25-18.47,17.31-24.66,21.18-15.09,9.67-32.59,14.5-52.51,14.5-27.27,0-48.93-8.27-64.98-24.8-16.05-16.53-24.08-38.82-24.08-66.87,0-10.83,1.31-20.79,3.92-29.88,2.61-9.09,5.95-16.87,10.01-23.35,4.06-6.48,9.43-12.28,16.1-17.41,6.67-5.12,13-9.33,19-12.62,5.99-3.29,13.39-6.09,22.19-8.41,8.8-2.32,16.29-4.01,22.48-5.08,6.19-1.06,13.83-1.89,22.92-2.46,9.09-.58,15.86-.92,20.31-1.02,4.45-.09,10.44-.14,17.99-.14v-18.28c0-15.28-2.71-26.45-8.12-33.51-5.42-7.06-16.73-10.59-33.94-10.59-9.67,0-20.07,1.5-31.19,4.5-11.12,3-20.55,6-28.28,8.99-7.74,3-12.47,4.5-14.22,4.5-1.36,0-2.61-.67-3.77-2.03-1.16-1.35-1.94-2.71-2.32-4.06l-11.89-36.26c-1.16-2.32-1.74-4.64-1.74-6.96,0-6.77,11.6-13.15,34.81-19.15,23.21-5.99,46.51-8.99,69.92-8.99,36.16,0,62.23,7.98,78.18,23.93,15.96,15.96,23.93,39.89,23.93,71.8v114.59c0,13.15.82,24.71,2.47,34.67,1.64,9.96,3.38,17.12,5.22,21.47,1.84,4.35,3.58,8.41,5.22,12.18,1.64,3.77,2.47,6.82,2.47,9.14,0,2.13-1.74,3.87-5.22,5.22ZM1421.62,1874.29v-65.56c-18.57,0-32.11.87-40.61,2.61-28.82,5.8-43.22,20.79-43.22,44.97,0,11.6,3.72,21.23,11.17,28.86,7.44,7.64,16.87,11.46,28.29,11.46,14.69,0,29.49-7.44,44.38-22.34Z"/>
      <path class="st1" d="M1690.26,1881.84l11.9,48.74c.19.97.43,1.84.73,2.61.29.77.43,1.45.43,2.03,0,4.06-6.43,7.88-19.29,11.46-12.86,3.58-26.45,5.37-40.76,5.37s-26.01-2.46-35.68-7.4c-9.67-4.93-16.93-10.44-21.76-16.53-4.84-6.09-8.46-15.23-10.88-27.42-2.42-12.18-3.82-22.09-4.21-29.74-.39-7.64-.58-18.81-.58-33.51v-303.16c0-1.16.09-2.18.29-3.04.19-.87.34-1.6.43-2.18.1-.58.44-1.16,1.01-1.74.58-.58.97-.96,1.16-1.16.19-.19.77-.48,1.74-.87.96-.39,1.54-.58,1.74-.58s1.02-.19,2.47-.58c1.45-.39,2.27-.58,2.47-.58l49.9-10.15c.58,0,2.03-.29,4.35-.87,2.32-.58,3.67-.87,4.06-.87,2.32,0,3.86.82,4.64,2.46.77,1.65,1.16,4.98,1.16,10.01v323.75c0,6.19.09,10.88.29,14.07.19,3.19.82,6.72,1.89,10.59,1.06,3.87,2.8,6.67,5.22,8.41,2.42,1.74,5.56,2.61,9.43,2.61,4.64,0,9.53-.87,14.65-2.61,5.12-1.74,7.88-2.61,8.27-2.61,2.71,0,4.35,1.16,4.93,3.48Z"/>
      <path class="st1" d="M1988.48,1935.22l-45.26,15.09c-3.48,1.16-6.48,1.74-8.99,1.74-3.68,0-6.82-2.61-9.43-7.83-2.61-5.22-5.76-14.31-9.43-27.27-26.31,23.4-56.67,35.1-91.09,35.1-9.28,0-17.98-1.21-26.11-3.62-8.12-2.42-16.25-6.57-24.37-12.48-8.12-5.9-14.61-14.89-19.44-26.98-4.84-12.09-7.25-26.64-7.25-43.66v-204.52c0-2.7.53-4.79,1.6-6.24,1.06-1.45,2.18-2.37,3.34-2.76,1.16-.39,3.29-.97,6.38-1.74l49.9-9.86c.58,0,2.18-.34,4.79-1.01,2.61-.68,4.21-1.01,4.79-1.01,1.74,0,2.95.82,3.62,2.46.68,1.65,1.02,4.98,1.02,10.01v189.15c0,6.77.33,12.67,1.01,17.7.67,5.03,2.07,10.2,4.21,15.52,2.13,5.32,5.56,9.43,10.3,12.33,4.74,2.9,10.68,4.35,17.84,4.35,16.25,0,33.65-6.19,52.22-18.57v-210.32c0-2.7.53-4.79,1.6-6.24,1.06-1.45,2.18-2.37,3.34-2.76,1.16-.39,3.28-.97,6.38-1.74l49.9-9.86c.58,0,2.22-.34,4.93-1.01,2.71-.68,4.45-1.01,5.22-1.01,2.71,0,4.06,4.16,4.06,12.47v185.37c0,19.15.58,35.06,1.74,47.72,1.16,12.67,2.47,21.08,3.92,25.24,1.45,4.16,2.76,7.88,3.92,11.17,1.16,3.29,1.74,6.19,1.74,8.7,0,3.1-2.13,5.22-6.38,6.38Z"/>
      <path class="st1" d="M2301.21,1931.15l-44.96,18.57c-.39,0-1.55.39-3.48,1.16-1.94.77-3.39,1.16-4.35,1.16-2.52,0-5.61-4.01-9.28-12.04-3.68-8.02-6.29-15.91-7.83-23.64-4.64,4.45-8.32,7.79-11.02,10.01-2.71,2.22-7.74,5.8-15.09,10.73-7.35,4.93-15.48,8.65-24.37,11.17-8.9,2.51-18.28,3.77-28.14,3.77-33.27,0-58.51-12.71-75.72-38.15-17.22-25.43-25.82-61.07-25.82-106.9,0-55.7,9.72-97.76,29.16-126.19,19.44-28.43,47.72-42.64,84.85-42.64,9.87,0,18.95,1.26,27.27,3.77,8.31,2.52,13.68,4.55,16.1,6.09,2.42,1.55,6.43,4.26,12.04,8.12v-121.84c0-1.16.09-2.18.29-3.04.19-.87.34-1.6.44-2.18.09-.58.43-1.16,1.01-1.74.58-.58.97-.96,1.16-1.16.19-.19.77-.48,1.74-.87.97-.39,1.55-.58,1.74-.58s1.01-.19,2.47-.58c1.45-.39,2.27-.58,2.47-.58l49.9-10.15c.58,0,1.98-.29,4.21-.87,2.22-.58,3.53-.87,3.92-.87,2.32,0,3.92.82,4.79,2.46.87,1.65,1.31,4.98,1.31,10.01v324.33c0,16.83.87,30.8,2.61,41.92,1.74,11.12,3.53,19.2,5.37,24.22,1.84,5.03,2.76,8.8,2.76,11.31,0,1.94-1.84,3.68-5.51,5.22ZM2220.56,1871.68v-162.17c-.19,0-1.4-.72-3.63-2.18-2.22-1.45-4.21-2.56-5.95-3.34-1.74-.77-4.16-1.74-7.25-2.9-3.1-1.16-6.67-2.03-10.73-2.61-4.06-.58-8.41-.87-13.05-.87-8.9,0-16.49,1.4-22.77,4.21-6.29,2.8-11.41,6.67-15.37,11.6-3.97,4.93-7.06,11.65-9.28,20.16-2.23,8.51-3.77,17.7-4.64,27.56-.87,9.86-1.31,21.76-1.31,35.68,0,34.43,3.63,58.99,10.88,73.69,7.25,14.7,20.26,22.05,39.02,22.05,5.99,0,11.31-.53,15.96-1.6,4.64-1.06,8.85-2.9,12.62-5.51,3.77-2.61,6.33-4.5,7.69-5.66,1.35-1.16,3.48-3.38,6.38-6.67.58-.58,1.06-1.06,1.45-1.45Z"/>
    </g>
    <g>
      <path class="st0" d="M91.72,2004.66c5.36-.98,12.8-1.71,22.91-1.71,10.97,0,19.01,2.32,24.25,6.7,4.87,4.02,8.04,10.48,8.04,18.16s-2.44,14.26-7.07,18.65c-5.97,5.97-15.35,8.77-25.96,8.77-2.8,0-5.36-.12-7.31-.49v30.95h-14.87v-81.04ZM106.59,2042.92c1.83.49,4.26.61,7.31.61,11.21,0,18.04-5.48,18.04-15.11s-6.34-14.01-16.7-14.01c-4.14,0-7.07.37-8.65.73v27.78Z"/>
      <path class="st0" d="M157.77,2045.48c0-8.04-.12-13.77-.49-19.13h13.04l.49,11.33h.49c2.92-8.41,9.87-12.67,16.21-12.67,1.46,0,2.32.12,3.53.37v14.14c-1.22-.24-2.56-.49-4.39-.49-7.19,0-12.06,4.63-13.4,11.33-.24,1.34-.49,2.92-.49,4.63v30.71h-14.99v-40.21Z"/>
      <path class="st0" d="M256.49,2055.48c0,21.81-15.36,31.56-30.47,31.56-16.82,0-29.73-11.58-29.73-30.59s12.8-31.44,30.71-31.44,29.49,12.43,29.49,30.47ZM211.76,2056.09c0,11.45,5.6,20.11,14.75,20.11,8.53,0,14.5-8.41,14.5-20.35,0-9.26-4.14-19.86-14.38-19.86s-14.87,10.24-14.87,20.11Z"/>
      <path class="st0" d="M323.03,2026.35c-.24,4.02-.49,8.9-.49,17.06v33.63c0,12.43-2.56,21.33-8.77,26.93-6.21,5.48-14.75,7.19-22.91,7.19-7.56,0-15.6-1.59-20.72-4.75l3.29-11.33c3.78,2.19,10.11,4.51,17.3,4.51,9.75,0,17.06-5.12,17.06-17.91v-5.12h-.24c-3.41,5.24-9.51,8.77-17.3,8.77-14.75,0-25.23-12.19-25.23-29,0-19.5,12.68-31.32,26.93-31.32,9.02,0,14.38,4.39,17.18,9.26h.24l.61-7.92h13.04ZM307.55,2050.11c0-1.34-.12-2.8-.49-4.02-1.59-5.48-5.85-9.63-12.18-9.63-8.41,0-14.62,7.31-14.62,19.38,0,10.11,5.12,18.28,14.5,18.28,5.6,0,10.48-3.66,12.19-9.02.36-1.58.61-3.66.61-5.36v-9.63Z"/>
      <path class="st0" d="M338.14,2045.48c0-8.04-.12-13.77-.49-19.13h13.04l.49,11.33h.49c2.92-8.41,9.87-12.67,16.21-12.67,1.46,0,2.32.12,3.53.37v14.14c-1.22-.24-2.56-.49-4.39-.49-7.19,0-12.06,4.63-13.4,11.33-.25,1.34-.49,2.92-.49,4.63v30.71h-14.99v-40.21Z"/>
      <path class="st0" d="M413.82,2085.7l-.98-6.58h-.36c-3.66,4.63-9.87,7.92-17.55,7.92-11.94,0-18.64-8.65-18.64-17.67,0-14.99,13.28-22.54,35.22-22.42v-.97c0-3.9-1.59-10.36-12.06-10.36-5.85,0-11.94,1.83-15.96,4.39l-2.92-9.75c4.39-2.68,12.06-5.24,21.45-5.24,19.01,0,24.49,12.06,24.49,24.98v21.45c0,5.36.24,10.6.85,14.26h-13.53ZM411.87,2056.69c-10.6-.24-20.72,2.07-20.72,11.09,0,5.85,3.78,8.53,8.53,8.53,5.97,0,10.36-3.9,11.7-8.16.36-1.1.49-2.32.49-3.29v-8.17Z"/>
      <path class="st0" d="M442.34,2044.02c0-6.82-.12-12.55-.49-17.67h12.92l.61,8.77h.36c2.92-4.63,8.29-10.11,18.28-10.11,7.8,0,13.89,4.39,16.45,10.97h.25c2.07-3.29,4.51-5.73,7.31-7.43,3.29-2.32,7.07-3.53,11.94-3.53,9.87,0,19.86,6.7,19.86,25.71v34.97h-14.62v-32.78c0-9.87-3.41-15.72-10.6-15.72-5.12,0-8.9,3.66-10.48,7.92-.37,1.46-.73,3.29-.73,5v35.58h-14.62v-34.36c0-8.29-3.29-14.14-10.24-14.14-5.6,0-9.38,4.39-10.72,8.53-.61,1.46-.85,3.17-.85,4.88v35.09h-14.62v-41.68Z"/>
      <path class="st0" d="M579.08,2085.7l-.97-6.58h-.37c-3.65,4.63-9.87,7.92-17.55,7.92-11.94,0-18.65-8.65-18.65-17.67,0-14.99,13.28-22.54,35.22-22.42v-.97c0-3.9-1.58-10.36-12.06-10.36-5.85,0-11.94,1.83-15.96,4.39l-2.92-9.75c4.39-2.68,12.07-5.24,21.45-5.24,19.01,0,24.49,12.06,24.49,24.98v21.45c0,5.36.25,10.6.85,14.26h-13.53ZM577.13,2056.69c-10.6-.24-20.72,2.07-20.72,11.09,0,5.85,3.78,8.53,8.53,8.53,5.97,0,10.36-3.9,11.7-8.16.37-1.1.49-2.32.49-3.29v-8.17Z"/>
      <path class="st0" d="M687.54,1999.18v69.83c0,6.09.24,12.67.49,16.69h-13.41l-.61-9.38h-.24c-3.53,6.58-10.73,10.72-19.38,10.72-14.13,0-25.35-12.06-25.35-30.34-.12-19.86,12.31-31.68,26.57-31.68,8.17,0,14.01,3.41,16.69,7.8h.25v-33.63h14.99ZM672.55,2051.09c0-1.22-.12-2.68-.37-3.9-1.34-5.85-6.09-10.6-12.92-10.6-9.63,0-14.99,8.53-14.99,19.62s5.36,18.77,14.87,18.77c6.09,0,11.45-4.14,12.92-10.6.36-1.34.49-2.8.49-4.39v-8.9Z"/>
      <path class="st0" d="M714.23,2060.23c.36,10.72,8.77,15.35,18.28,15.35,6.95,0,11.94-.98,16.45-2.68l2.19,10.36c-5.12,2.07-12.19,3.66-20.72,3.66-19.26,0-30.59-11.82-30.59-29.98,0-16.45,9.99-31.93,29-31.93s25.59,15.84,25.59,28.88c0,2.8-.24,5-.49,6.34h-39.73ZM740.31,2049.75c.12-5.48-2.32-14.5-12.31-14.5-9.26,0-13.16,8.41-13.77,14.5h26.08Z"/>
      <path class="st0" d="M838.29,2049.26h-30.95v24.13h34.61v12.31h-49.6v-82.13h47.77v12.31h-32.78v21.2h30.95v12.19Z"/>
      <path class="st0" d="M908.73,1999.18v69.83c0,6.09.25,12.67.49,16.69h-13.4l-.61-9.38h-.25c-3.53,6.58-10.72,10.72-19.37,10.72-14.14,0-25.35-12.06-25.35-30.34-.12-19.86,12.31-31.68,26.57-31.68,8.16,0,14.01,3.41,16.69,7.8h.24v-33.63h14.99ZM893.74,2051.09c0-1.22-.12-2.68-.36-3.9-1.34-5.85-6.09-10.6-12.92-10.6-9.63,0-14.99,8.53-14.99,19.62s5.36,18.77,14.87,18.77c6.09,0,11.46-4.14,12.92-10.6.37-1.34.49-2.8.49-4.39v-8.9Z"/>
      <path class="st0" d="M977.96,2067.91c0,7.07.24,12.92.49,17.79h-13.16l-.73-9.02h-.24c-2.56,4.26-8.41,10.36-19.01,10.36s-20.72-6.46-20.72-25.83v-34.85h14.99v32.29c0,9.87,3.17,16.21,11.09,16.21,5.97,0,9.87-4.27,11.45-8.04.49-1.34.85-2.92.85-4.63v-35.83h14.99v41.56Z"/>
      <path class="st0" d="M1037.79,2083.87c-3.17,1.46-9.38,3.05-16.82,3.05-18.52,0-30.59-11.82-30.59-30.22s12.19-31.68,33.02-31.68c5.48,0,11.09,1.22,14.5,2.8l-2.68,11.21c-2.44-1.1-5.97-2.32-11.33-2.32-11.45,0-18.28,8.41-18.16,19.25,0,12.19,7.92,19.13,18.16,19.13,5.24,0,8.9-1.1,11.82-2.32l2.07,11.09Z"/>
      <path class="st0" d="M1082.28,2085.7l-.98-6.58h-.36c-3.66,4.63-9.87,7.92-17.55,7.92-11.94,0-18.64-8.65-18.64-17.67,0-14.99,13.28-22.54,35.22-22.42v-.97c0-3.9-1.59-10.36-12.06-10.36-5.85,0-11.94,1.83-15.96,4.39l-2.92-9.75c4.39-2.68,12.06-5.24,21.45-5.24,19.01,0,24.49,12.06,24.49,24.98v21.45c0,5.36.24,10.6.85,14.26h-13.53ZM1080.33,2056.69c-10.6-.24-20.72,2.07-20.72,11.09,0,5.85,3.78,8.53,8.53,8.53,5.97,0,10.36-3.9,11.7-8.16.36-1.1.49-2.32.49-3.29v-8.17Z"/>
      <path class="st0" d="M1154.42,2083.87c-3.17,1.46-9.38,3.05-16.82,3.05-18.52,0-30.59-11.82-30.59-30.22s12.19-31.68,33.02-31.68c5.48,0,11.09,1.22,14.5,2.8l-2.68,11.21c-2.44-1.1-5.97-2.32-11.33-2.32-11.45,0-18.28,8.41-18.16,19.25,0,12.19,7.92,19.13,18.16,19.13,5.24,0,8.9-1.1,11.82-2.32l2.07,11.09Z"/>
      <path class="st0" d="M1181.48,2009.78c0,4.51-3.29,8.04-8.53,8.04s-8.29-3.53-8.29-8.04,3.41-8.17,8.41-8.17,8.29,3.53,8.41,8.17ZM1165.52,2085.7v-59.35h15.11v59.35h-15.11Z"/>
      <path class="st0" d="M1253.14,2055.48c0,21.81-15.36,31.56-30.47,31.56-16.81,0-29.73-11.58-29.73-30.59s12.8-31.44,30.71-31.44,29.49,12.43,29.49,30.47ZM1208.41,2056.09c0,11.45,5.6,20.11,14.75,20.11,8.53,0,14.5-8.41,14.5-20.35,0-9.26-4.14-19.86-14.38-19.86s-14.87,10.24-14.87,20.11ZM1240.95,2000.64l-14.99,18.04h-10.36l10.6-18.04h14.75Z"/>
      <path class="st0" d="M1265.45,2044.02c0-6.82-.12-12.55-.49-17.67h13.16l.73,8.9h.36c2.56-4.63,9.02-10.24,18.89-10.24,10.36,0,21.08,6.7,21.08,25.47v35.22h-14.99v-33.51c0-8.53-3.17-14.99-11.34-14.99-5.97,0-10.11,4.26-11.7,8.77-.49,1.34-.61,3.17-.61,4.87v34.85h-15.11v-41.68Z"/>
      <path class="st0" d="M1419.85,2083.26c-3.53,1.83-11.33,3.66-21.2,3.66-26.08,0-41.92-16.33-41.92-41.31,0-27.05,18.76-43.38,43.87-43.38,9.87,0,16.94,2.07,19.98,3.66l-3.29,11.94c-3.9-1.71-9.26-3.17-16.09-3.17-16.69,0-28.76,10.48-28.76,30.22,0,18.04,10.6,29.61,28.64,29.61,6.09,0,12.43-1.22,16.33-3.05l2.43,11.82Z"/>
      <path class="st0" d="M1486.52,2055.48c0,21.81-15.36,31.56-30.47,31.56-16.81,0-29.73-11.58-29.73-30.59s12.8-31.44,30.71-31.44,29.49,12.43,29.49,30.47ZM1441.79,2056.09c0,11.45,5.6,20.11,14.75,20.11,8.53,0,14.5-8.41,14.5-20.35,0-9.26-4.14-19.86-14.38-19.86s-14.87,10.24-14.87,20.11Z"/>
      <path class="st0" d="M1498.83,2044.02c0-6.82-.12-12.55-.49-17.67h13.16l.73,8.9h.36c2.56-4.63,9.02-10.24,18.89-10.24,10.36,0,21.08,6.7,21.08,25.47v35.22h-14.99v-33.51c0-8.53-3.17-14.99-11.34-14.99-5.97,0-10.11,4.26-11.7,8.77-.49,1.34-.61,3.17-.61,4.87v34.85h-15.11v-41.68Z"/>
      <path class="st0" d="M1585.11,2009.41v16.94h14.26v11.21h-14.26v26.2c0,7.19,1.95,10.97,7.68,10.97,2.56,0,4.51-.37,5.85-.73l.24,11.46c-2.19.85-6.09,1.46-10.84,1.46-5.48,0-10.11-1.83-12.92-4.87-3.17-3.41-4.63-8.77-4.63-16.57v-27.91h-8.53v-11.21h8.53v-13.4l14.62-3.53Z"/>
      <path class="st0" d="M1626.67,2009.78c0,4.51-3.29,8.04-8.53,8.04s-8.29-3.53-8.29-8.04,3.41-8.17,8.41-8.17,8.28,3.53,8.41,8.17ZM1610.71,2085.7v-59.35h15.11v59.35h-15.11Z"/>
      <path class="st0" d="M1641.9,2044.02c0-6.82-.12-12.55-.49-17.67h13.16l.73,8.9h.36c2.56-4.63,9.02-10.24,18.89-10.24,10.36,0,21.08,6.7,21.08,25.47v35.22h-14.99v-33.51c0-8.53-3.17-14.99-11.33-14.99-5.97,0-10.12,4.26-11.7,8.77-.49,1.34-.61,3.17-.61,4.87v34.85h-15.11v-41.68Z"/>
      <path class="st0" d="M1764.74,2067.91c0,7.07.25,12.92.49,17.79h-13.16l-.73-9.02h-.25c-2.56,4.26-8.41,10.36-19.01,10.36s-20.72-6.46-20.72-25.83v-34.85h14.99v32.29c0,9.87,3.17,16.21,11.09,16.21,5.97,0,9.87-4.27,11.45-8.04.49-1.34.85-2.92.85-4.63v-35.83h14.99v41.56Z"/>
      <path class="st0" d="M1814.35,2085.7l-.98-6.58h-.36c-3.66,4.63-9.87,7.92-17.55,7.92-11.94,0-18.65-8.65-18.65-17.67,0-14.99,13.29-22.54,35.22-22.42v-.97c0-3.9-1.59-10.36-12.07-10.36-5.85,0-11.94,1.83-15.96,4.39l-2.92-9.75c4.39-2.68,12.06-5.24,21.45-5.24,19.01,0,24.5,12.06,24.5,24.98v21.45c0,5.36.24,10.6.85,14.26h-13.52ZM1812.4,2056.69c-10.6-.24-20.72,2.07-20.72,11.09,0,5.85,3.78,8.53,8.53,8.53,5.97,0,10.36-3.9,11.7-8.16.36-1.1.49-2.32.49-3.29v-8.17Z"/>
      <path class="st0" d="M1878.69,2060.23c.37,10.72,8.77,15.35,18.28,15.35,6.95,0,11.94-.98,16.45-2.68l2.2,10.36c-5.12,2.07-12.19,3.66-20.72,3.66-19.25,0-30.59-11.82-30.59-29.98,0-16.45,9.99-31.93,29-31.93s25.59,15.84,25.59,28.88c0,2.8-.25,5-.49,6.34h-39.73ZM1904.77,2049.75c.12-5.48-2.32-14.5-12.31-14.5-9.26,0-13.16,8.41-13.77,14.5h26.08Z"/>
      <path class="st0" d="M1930.97,2044.02c0-6.82-.12-12.55-.49-17.67h13.16l.73,8.9h.36c2.56-4.63,9.02-10.24,18.89-10.24,10.36,0,21.08,6.7,21.08,25.47v35.22h-14.99v-33.51c0-8.53-3.17-14.99-11.33-14.99-5.97,0-10.12,4.26-11.7,8.77-.49,1.34-.61,3.17-.61,4.87v34.85h-15.11v-41.68Z"/>
      <path class="st0" d="M2026.15,2069.37c4.87,2.8,12.19,5.24,19.86,5.24,9.63,0,14.99-4.51,14.99-11.21,0-6.21-4.14-9.87-14.62-13.65-13.53-4.87-22.18-12.06-22.18-23.88,0-13.4,11.21-23.64,29-23.64,8.9,0,15.48,1.95,19.74,4.14l-3.66,12.06c-2.92-1.59-8.65-3.9-16.33-3.9-9.5,0-13.65,5.12-13.65,9.87,0,6.34,4.75,9.26,15.72,13.53,14.26,5.36,21.2,12.55,21.2,24.37,0,13.16-9.99,24.62-31.2,24.62-8.65,0-17.67-2.44-22.18-5.12l3.29-12.43Z"/>
      <path class="st0" d="M2123.28,2085.7l-.98-6.58h-.36c-3.66,4.63-9.87,7.92-17.55,7.92-11.94,0-18.65-8.65-18.65-17.67,0-14.99,13.29-22.54,35.22-22.42v-.97c0-3.9-1.59-10.36-12.07-10.36-5.85,0-11.94,1.83-15.96,4.39l-2.92-9.75c4.39-2.68,12.06-5.24,21.45-5.24,19.01,0,24.5,12.06,24.5,24.98v21.45c0,5.36.24,10.6.85,14.26h-13.52ZM2121.33,2056.69c-10.6-.24-20.72,2.07-20.72,11.09,0,5.85,3.78,8.53,8.53,8.53,5.97,0,10.36-3.9,11.7-8.16.36-1.1.49-2.32.49-3.29v-8.17Z"/>
      <path class="st0" d="M2151.8,1999.18h15.11v86.52h-15.11v-86.52Z"/>
      <path class="st0" d="M2236.25,2067.91c0,7.07.25,12.92.49,17.79h-13.16l-.73-9.02h-.25c-2.56,4.26-8.41,10.36-19.01,10.36s-20.72-6.46-20.72-25.83v-34.85h14.99v32.29c0,9.87,3.17,16.21,11.09,16.21,5.97,0,9.87-4.27,11.45-8.04.49-1.34.85-2.92.85-4.63v-35.83h14.99v41.56Z"/>
      <path class="st0" d="M2307.18,1999.18v69.83c0,6.09.24,12.67.49,16.69h-13.41l-.61-9.38h-.25c-3.53,6.58-10.72,10.72-19.37,10.72-14.14,0-25.35-12.06-25.35-30.34-.12-19.86,12.31-31.68,26.57-31.68,8.17,0,14.01,3.41,16.69,7.8h.25v-33.63h14.99ZM2292.19,2051.09c0-1.22-.12-2.68-.37-3.9-1.34-5.85-6.09-10.6-12.91-10.6-9.63,0-14.99,8.53-14.99,19.62s5.36,18.77,14.87,18.77c6.09,0,11.45-4.14,12.91-10.6.37-1.34.49-2.8.49-4.39v-8.9Z"/>
    </g>
  </g>
  <g>
    <path class="st2" d="M1753.39,735.75c-.03-.36-.09-.69-.18-1.03,0-.04,0-.07-.03-.12h0c-.83-3.16-3.69-5.5-7.12-5.5-3.15,0-5.94,1.99-8.64,3.36-2.82,1.44-5.79,2.64-8.71,3.85-6.24,2.61-12.6,4.99-19.02,7.14-5.79,1.95-11.63,3.68-17.54,5.23v-104.79c0-.36,0-.7,0-1.04v-.04c0-.23,0-.46,0-.69,0-.87-.09-1.73-.26-2.55,0-.02,0-.03,0-.05-.21-1.03-.54-2.02-1-2.94-1.19-2.46-3.15-4.48-5.57-5.74-.61-.31-1.23-.58-1.9-.81-.98-.31-2.02-.52-3.1-.58h-.02c-.29-.03-.57-.04-.86-.04-5.43,0-10.24,3.43-14.89,5.8-4.86,2.46-9.97,4.53-15.01,6.64-10.77,4.5-21.7,8.59-32.75,12.3-5.26,1.76-10.57,3.43-15.91,5v-89.31c0-.37,0-.7-.02-1.05v-.04c0-.21.02-.45.02-.69,0-.88-.09-1.75-.26-2.58,0,0,0-.03-.02-.04-.21-1.04-.54-2.04-1-2.97-1.2-2.47-3.18-4.51-5.61-5.79-.61-.31-1.25-.58-1.92-.79-.99-.35-2.04-.54-3.12-.62h0c-.29-.03-.57-.03-.88-.03-5.48,0-10.33,3.47-15.01,5.85-4.9,2.47-10.05,4.59-15.13,6.7-10.87,4.52-21.89,8.66-33.04,12.4-22.6,7.56-45.75,13.47-69.2,17.66-24.01,4.29-48.34,6.77-72.73,7.47-4.58.12-9.59.74-14.15.21,18.64,2.13,37.57,3.24,56.77,3.24,25.19,0,50.36-1.9,75.24-5.73,24.27-3.72,48.25-9.28,71.67-16.58,5.25-1.62,10.47-3.36,15.7-5.01.09-.04.18-.06.27-.09-.51,27.24-1.02,54.47-1.53,81.72l-.28,14.65c-3.18,170.2-6.34,340.4-9.53,510.6-.04,2.2-.08,4.42-.12,6.61v.12c-32.21-4.6-75.89-9.26-111.73-3.68-126.41,19.73-212.93,97.42-258.86,150.81-1.87,2.19-3.69,4.34-5.43,6.43h-.15c-1.77-2.11-3.6-4.29-5.5-6.51-45.93-53.39-132.44-131-258.79-150.73-35.86-5.58-79.54-.93-111.72,3.68v-.12c-.04-2.19-.09-4.41-.12-6.61-3.18-170.21-6.35-340.4-9.54-510.61-.09-4.87-.18-9.76-.28-14.63-.51-27.25-1.02-54.48-1.53-81.72.11.03.18.05.27.09,5.25,1.65,10.46,3.39,15.7,5.01,23.44,7.31,47.4,12.86,71.67,16.58,24.89,3.83,50.08,5.73,75.25,5.73,19.2,0,38.14-1.11,56.78-3.24-4.57.53-9.57-.09-14.17-.21-24.37-.7-48.7-3.18-72.71-7.47-23.47-4.18-46.61-10.1-69.21-17.66-11.15-3.74-22.18-7.88-33.05-12.4-5.07-2.11-10.22-4.23-15.11-6.7-4.68-2.38-9.55-5.85-15.02-5.85-.3,0-.58,0-.88.03h-.02c-1.08.09-2.13.28-3.12.62-.66.21-1.3.48-1.9.79-2.44,1.28-4.42,3.32-5.62,5.79-.46.93-.79,1.93-1.01,2.97,0,0,0,.03,0,.04-.17.83-.27,1.69-.27,2.58,0,.24,0,.47.03.69v.04c-.02.35-.03.69-.03,1.05v89.31c-5.33-1.57-10.63-3.25-15.91-5.01-11.05-3.7-22-7.81-32.76-12.3-5.03-2.11-10.13-4.18-14.99-6.64-4.65-2.36-9.47-5.8-14.89-5.8-.29,0-.59.02-.87.04h-.03c-1.08.06-2.12.27-3.1.6-.66.21-1.28.48-1.91.8-2.41,1.26-4.36,3.27-5.56,5.74-.45.93-.79,1.9-.99,2.94,0,0,0,.03,0,.05-.18.81-.26,1.68-.26,2.53,0,.24,0,.46.02.69v.04c-.02.35-.02.69-.02,1.04v105.44c-6.73-1.7-13.39-3.67-19.97-5.86-6.41-2.15-12.76-4.53-19-7.14-2.93-1.21-5.89-2.42-8.71-3.85-2.7-1.37-5.5-3.36-8.65-3.36-3.43,0-6.29,2.34-7.13,5.5h-.02c0,.05,0,.09-.02.12-.08.34-.14.67-.18,1.03-.05.41-.08.81-.08,1.22v.09c0,.05,0,.1,0,.15v639.1c13.57,2.97,27.93,5.78,43.06,8.27,15.15,2.48,31.03,4.68,47.63,6.44,28.16,2.99,54.53,4.32,78.72,4.59,29.12-1.15,52.7-3.6,68.75-5.58,32.26-3.98,49.1-8.03,97.94-15.48,21.45-3.27,38.98-5.67,50.23-7.15,20.06-2.61,51.16-4.05,87.25,5.05,23.92,6.04,43.19,14.98,57.3,22.94,5.38,1.71,13.43,3.63,23.3,3.57,9.47-.05,17.21-1.89,22.48-3.57,14.12-7.96,33.38-16.9,57.29-22.94,36.11-9.1,67.21-7.65,87.26-5.05,11.26,1.48,28.79,3.87,50.23,7.15,48.83,7.45,65.69,11.5,97.95,15.48,16.03,1.98,39.63,4.43,68.75,5.58,24.19-.27,50.55-1.6,78.71-4.59,16.6-1.76,32.49-3.96,47.62-6.44,15.13-2.49,29.5-5.3,43.07-8.27v-639.34c-.02-.41-.04-.81-.09-1.22ZM1469.19,1201.07c44.56-6,84.09-2.11,115.4,4.42,5.71,1.2,11.15,2.48,16.29,3.8v-533.76c21.34-3.63,42.44-8.71,63.1-15.16,5.19-1.62,10.38-3.34,15.55-4.97.1-.03.18-.07.28-.09-.59,32.24-1.2,64.48-1.8,96.72-.05,2.25-.09,4.51-.13,6.75-3.1,166.08-6.21,332.16-9.3,498.22-.04,2.19-.07,4.38-.13,6.58-.04,2.49-.09,4.99-.14,7.49-5.39,3.4-12.93,7.78-22.32,12.08-15.22,6.97-27.61,10.23-36.13,12.43-15.35,3.96-27.21,5.47-39.39,7.02-12.29,1.57-23.7,2.44-34.02,2.88,0,0-38.37-.7-84.25-6.97,0,0-68.6-6.44-83.77-5.3-22.4,1.16-53.2,5.15-87.81,17.24-13.18,4.6-25.13,9.77-35.87,15.07,41.73-46.12,116.9-109.96,224.45-124.45ZM721.99,655.28c.09.03.18.06.27.09,5.19,1.64,10.36,3.35,15.56,4.98,20.66,6.45,41.76,11.53,63.1,15.16v533.77c5.14-1.32,10.59-2.6,16.3-3.8,31.3-6.52,70.84-10.42,115.41-4.42,107.54,14.49,182.73,78.35,224.45,124.46-10.74-5.34-22.71-10.48-35.89-15.1-34.61-12.1-65.42-16.09-87.81-17.24-15.18-1.14-83.78,5.29-83.78,5.29-45.88,6.27-84.25,6.97-84.25,6.97-10.31-.44-21.71-1.3-34.01-2.88-12.19-1.54-24.03-3.06-39.39-7.01-8.53-2.2-20.9-5.46-36.12-12.43-9.39-4.31-16.93-8.69-22.34-12.09-.05-2.5-.09-5-.14-7.49-.04-2.19-.08-4.38-.12-6.57-3.1-165.99-6.2-332-9.3-498.01-.04-2.14-.07-4.3-.12-6.45-.61-32.42-1.2-64.82-1.81-97.24ZM1128.05,1332.66c-18.33-2.77-46.64-5.85-81.08-4.34-68.4,3-92.56,21.08-182.27,32.34-46.69,5.85-79.51,5.89-86.86,5.86-41.31-.11-77.83-4.36-108.33-9.89l-11.4-610.91c1.4.44,2.79.9,4.19,1.33,13.48,4.21,27.28,7.41,41.24,9.55,2.03.32,4.07.61,6.11.87v522.76l22.02,9.57c7.42,2.98,14.93,5.75,22.53,8.29,14.89,5,30.09,9.19,45.45,12.53,32.73,7.11,66.47,9.65,99.89,7.5,33.83-2.17,67.18-9.13,101.13-10.05,31.52-.88,63.38,2.21,93.68,11.24,13.15,3.92,24.77,8.54,34.79,13.22.61.23,1.22.45,1.83.69-1-.19-1.98-.38-2.94-.56ZM1200.88,1359.13l-5.62-9.34-.82-1.35h0l.81,1.35,5.63,9.34h0ZM1729.86,1356.64c-30.48,5.52-67,9.78-108.33,9.89-7.34.03-40.17,0-86.86-5.86-89.71-11.26-113.86-29.34-182.25-32.34-33.49-1.47-61.17,1.39-79.54,4.11,9.97-4.64,21.51-9.22,34.55-13.11,30.29-9.03,62.16-12.12,93.67-11.25,33.96.95,67.31,7.9,101.14,10.07,33.42,2.14,67.16-.39,99.89-7.5,15.34-3.34,30.56-7.53,45.46-12.53,7.58-2.54,15.1-5.3,22.54-8.29l22.01-9.58v-523.09c1.23-.18,2.46-.36,3.69-.54,13.96-2.13,27.76-5.34,41.25-9.55,1.4-.43,2.79-.89,4.19-1.33l-11.42,610.91Z"/>
    <g>
      <path class="st3" d="M1348.91,526.41c-7.79-52.15-51.7-88.97-98.71-107.47-.78-.33-1.58-.64-2.37-.94-15.88-6.05-32.08-8.98-48.15-9.15-14.39-.14-28.67,1.98-42.48,6.09-17.05,5.07-33.42,13.18-48.5,23.9-26.11,18.6-46.52,44.5-59.02,73.98-.18.41-.59.87-.4,1.27,10.6,23.06,48.71,15.76,48.71,15.76,12.18-9.48,33.13-23.43,62.26-32.11,0,0,.02,0,.03,0,2.09-.62,4.23-1.22,6.41-1.78.73-.18,1.46-.37,2.18-.54l.24-.06c12.04-2.95,23.29-4.44,33.33-5.06,6.77-.39,17.73-.16,30.28,4.05,2.46.81,4.78,1.72,6.97,2.7l.06.03c2.68,1.18,5.16,2.46,7.42,3.77,0,0,.02,0,.03,0,6.61,3.78,11.51,7.82,14.69,10.78,2.25,1.99,20.05,18.24,18.39,43.07-1.88,28.34-30.55,43.36-36.78,46.66l-2.67,72.67c.88-.29,1.76-.57,2.67-.88,14.68-4.74,23.32-7.53,34.32-13.9,7.15-4.14,16.57-10.53,26.25-20.19,2.54-2.07,54.82-46,44.86-112.62ZM1114.05,482.79c-8.13,0-14.72-6.59-14.72-14.7s6.59-14.72,14.72-14.72,14.7,6.58,14.7,14.72-6.59,14.7-14.7,14.7Z"/>
      <path class="st3" d="M1273.75,1188.09c-.96-.6-1.92-1.23-2.88-1.83-12.64-8.07-25.31-16.14-37.95-24.21-3.27-2.08-6.55-4.17-9.82-6.27-13.2-8.4-26.38-16.81-39.57-25.22-.18-.1-.36-.23-.54-.33-16.09-10.25-34.34-19.24-38.45-39.82-2.27-11.44.18-20.69,1.56-24.9,2.28-4.28,6.7-11.3,14.6-17.5,3.73-2.94,9.97-7.85,19.06-9.65.12-.02.23-.06.35-.07l-.67-18.68c-16.53,4.5-26.48,14.95-31.08,19.89-9.03,9.65-13.5,19.6-15.7,25.79-1.11,4.94-3.22,17.53,2.46,31.63,5.51,16.57,18.39,25.13,32.53,33.85,4.87,2.98,9.77,5.93,14.66,8.9.52.31,1.04.64,1.56.96,12.99,7.85,25.95,15.71,38.91,23.56,5.38,3.27,10.76,6.52,16.14,9.78,10.54,6.4,21.09,12.77,31.64,19.17,1.33.83,3.06.47,3.99-.78,1-1.4.63-3.34-.81-4.26Z"/>
      <path class="st3" d="M1268.15,991.69c-.44.44-.96.94-1.1,1.08-7.76,7.58-18.69,18.25-32.31,21.87.22-5.96.46-14.19.72-24.64,15.33-5.76,25.85-25.99,29.21-41.39,5.61-25.73-6.17-51-28.13-64.49-1.14-.69-2.26-1.38-3.38-2.1-20.39-12.63-40.32-26.12-60.24-39.57-9.18-6.2-18.39-12.4-27.6-18.47-5.26-3.48-10.53-6.97-15.81-10.43-6.57-4.75-25.52-19.8-33.42-47.01-10.93-37.55,7.88-68.35,10.99-73.25,6.17-7.63,14.9-16.97,26.69-26.02,15.04-11.55,24.12-16.55,31.98-19.11l2.34,63.22c-5.1,1.51-18.62,6.4-24.57,18.81-7.41,15.47-.32,33.97,10.2,46.08,7.5,8.65,18,14.92,27,21.89,10.35,8.02,20.69,16.05,31.03,24.08,7.65,5.93,15.3,11.88,22.95,17.82,6.61,5.13,13.22,10.25,19.83,15.38,10.37,8.05,19.56,15.58,26.62,26.75,7.75,12.27,12.52,26.32,13.48,40.81,2.58,39.1-22.59,64.81-26.48,68.65Z"/>
      <path class="st3" d="M1198.11,1164.8l2.16,59.09c.07,1.88,1.62,3.36,3.5,3.36s3.41-1.48,3.49-3.36l1.93-52.37-6.94-4.21c-1.38-.84-2.75-1.67-4.13-2.51Z"/>
      <path class="st3" d="M1222.83,959.85l-5.36-13.77,2.09-56.85c-10.87-6.86-21.7-13.98-32.38-21.1l4.94,134.19,1.31,35.93.43,11.53,2.7,73.29c4.69,2.99,9.38,5.99,14.07,8.97l3.32-90.12c3.32-7.87,6.73-16.24,7.04-18.09.62-3.69,1.85-63.99,1.85-63.99Z"/>
      <path class="st3" d="M1241.09,754.13l-7.11-17.48-9.16,10.17,2-54.22,3.65-99.44,3.1-84.29c-1.66-.69-3.33-1.34-5.04-1.9-6.94-2.33-14.16-3.52-21.48-3.52-1.27,0-2.58.05-3.85.12-9.82.59-19.66,2.05-29.25,4.28l1.95,53.1-18.59-9.57-13.43,14.46,34.65,66.45,3.27,88.96,2.31,62.62.25.19v.07c12.68,9.82,25.35,19.66,38.01,29.5h0l18.74-59.51Z"/>
      <path class="st3" d="M1169.7,392.41l.21,5.78c9.43-1.78,18.93-2.67,28.4-2.67h1.49c12.79.13,25.44,1.85,37.74,5.15l.89-24.16,15.48-56.53c1.24-4.53-2.43-8.89-7.1-8.45l-22.33,7.4-22.26-20.46-35.37-7.93c-4.51-1.01-8.67,2.73-8.13,7.32l11,94.55Z"/>
    </g>
  </g>
</svg>